 <svg version="1.0" xmlns="http://www.w3.org/2000/svg"  width="300.000000pt" height="300.000000pt" viewBox="0 0 300.000000 300.000000"  preserveAspectRatio="xMidYMid meet">  <g transform="translate(0.000000,300.000000) scale(0.100000,-0.100000)" fill="#199ed7" stroke="none"> <path d="M2320 1580 l0 -330 45 0 45 0 0 37 0 37 28 -26 c35 -33 58 -44 110 -53 142 -23 272 99 272 255 0 68 -28 139 -74 185 -53 52 -99 68 -182 63 -52 -3 -72 -10 -109 -36 l-45 -32 0 115 0 115 -45 0 -45 0 0 -330z m320 72 c96 -48 116 -189 39 -277 -76 -86 -213 -59 -255 50 -58 153 78 297 216 227z"/> <path d="M378 1861 c-76 -30 -124 -75 -160 -149 -30 -60 -33 -75 -33 -152 1 -98 21 -153 78 -217 64 -70 171 -107 282 -96 l50 5 60 -61 c58 -59 61 -61 112 -61 29 0 53 3 53 8 0 4 -33 41 -74 81 l-74 73 39 35 c21 19 51 60 66 91 24 49 28 69 28 142 0 47 -6 102 -13 123 -21 59 -83 129 -143 162 -71 38 -197 46 -271 16z m199 -74 c18 -7 48 -26 66 -44 51 -48 71 -97 71 -178 1 -89 -30 -156 -93 -200 -39 -28 -50 -30 -126 -30 -76 0 -87 2 -126 30 -62 44 -92 110 -92 201 0 61 4 79 30 125 52 92 168 133 270 96z"/> <path d="M860 1874 c0 -5 38 -144 85 -310 47 -167 85 -305 85 -308 0 -4 22 -6 50 -6 l49 0 30 98 c16 53 49 160 71 237 23 77 43 141 44 142 1 2 33 -106 71 -238 l68 -240 50 3 51 3 82 285 c111 383 106 342 47 338 l-48 -3 -65 -253 -66 -252 -63 237 c-35 131 -68 246 -73 256 -6 12 -21 17 -53 17 l-44 0 -19 -62 c-10 -35 -43 -150 -72 -255 l-55 -192 -52 202 c-29 111 -58 225 -65 252 l-13 50 -48 3 c-26 2 -47 0 -47 -4z"/> <path d="M1885 1734 c-79 -29 -134 -107 -142 -205 -17 -187 122 -316 300 -279 60 12 127 61 152 111 23 43 19 49 -33 49 -39 0 -49 -4 -57 -22 -28 -62 -143 -86 -201 -42 -33 24 -60 60 -69 92 l-6 22 196 0 197 0 -4 69 c-3 54 -10 78 -33 117 -57 91 -187 129 -300 88z m180 -84 c29 -18 74 -95 62 -107 -2 -2 -70 -2 -150 -1 l-146 3 19 42 c11 25 33 51 52 63 44 27 120 27 163 0z"/> </g> </svg> 